<svg width="114" height="22" viewBox="0 0 114 22" fill="none" xmlns="http://www.w3.org/2000/svg">
<path d="M0.640015 21.4V0.2H4.32001V5.96L3.96001 4.52C4.54668 3.05333 5.53335 1.93333 6.92001 1.16C8.30668 0.386666 10.0133 0 12.04 0V3.72C11.88 3.69333 11.72 3.68 11.56 3.68C11.4267 3.68 11.2933 3.68 11.16 3.68C9.10668 3.68 7.48001 4.29333 6.28001 5.52C5.08002 6.74667 4.48001 8.52 4.48001 10.84V21.4H0.640015Z" fill="white"/>
<path d="M25.6575 21.64C23.5242 21.64 21.6308 21.1733 19.9775 20.24C18.3242 19.3067 17.0175 18.0267 16.0575 16.4C15.0975 14.7467 14.6175 12.88 14.6175 10.8C14.6175 8.69333 15.0975 6.82667 16.0575 5.2C17.0175 3.57333 18.3242 2.30667 19.9775 1.4C21.6308 0.466667 23.5242 0 25.6575 0C27.7642 0 29.6442 0.466667 31.2975 1.4C32.9775 2.30667 34.2842 3.57333 35.2175 5.2C36.1775 6.8 36.6575 8.66667 36.6575 10.8C36.6575 12.9067 36.1775 14.7733 35.2175 16.4C34.2842 18.0267 32.9775 19.3067 31.2975 20.24C29.6442 21.1733 27.7642 21.64 25.6575 21.64ZM25.6575 18.28C27.0175 18.28 28.2308 17.9733 29.2975 17.36C30.3908 16.7467 31.2442 15.88 31.8575 14.76C32.4708 13.6133 32.7775 12.2933 32.7775 10.8C32.7775 9.28 32.4708 7.97333 31.8575 6.88C31.2442 5.76 30.3908 4.89333 29.2975 4.28C28.2308 3.66667 27.0175 3.36 25.6575 3.36C24.2975 3.36 23.0842 3.66667 22.0175 4.28C20.9508 4.89333 20.0975 5.76 19.4575 6.88C18.8175 7.97333 18.4975 9.28 18.4975 10.8C18.4975 12.2933 18.8175 13.6133 19.4575 14.76C20.0975 15.88 20.9508 16.7467 22.0175 17.36C23.0842 17.9733 24.2975 18.28 25.6575 18.28Z" fill="white"/>
<path d="M51.0481 21.64C48.9148 21.64 47.0215 21.1733 45.3681 20.24C43.7148 19.3067 42.4081 18.0267 41.4481 16.4C40.4881 14.7467 40.0081 12.88 40.0081 10.8C40.0081 8.69333 40.4881 6.82667 41.4481 5.2C42.4081 3.57333 43.7148 2.30667 45.3681 1.4C47.0215 0.466667 48.9148 0 51.0481 0C53.1548 0 55.0348 0.466667 56.6881 1.4C58.3681 2.30667 59.6748 3.57333 60.6081 5.2C61.5681 6.8 62.0481 8.66667 62.0481 10.8C62.0481 12.9067 61.5681 14.7733 60.6081 16.4C59.6748 18.0267 58.3681 19.3067 56.6881 20.24C55.0348 21.1733 53.1548 21.64 51.0481 21.64ZM51.0481 18.28C52.4081 18.28 53.6215 17.9733 54.6881 17.36C55.7815 16.7467 56.6348 15.88 57.2481 14.76C57.8615 13.6133 58.1681 12.2933 58.1681 10.8C58.1681 9.28 57.8615 7.97333 57.2481 6.88C56.6348 5.76 55.7815 4.89333 54.6881 4.28C53.6215 3.66667 52.4081 3.36 51.0481 3.36C49.6881 3.36 48.4748 3.66667 47.4081 4.28C46.3415 4.89333 45.4881 5.76 44.8481 6.88C44.2081 7.97333 43.8881 9.28 43.8881 10.8C43.8881 12.2933 44.2081 13.6133 44.8481 14.76C45.4881 15.88 46.3415 16.7467 47.4081 17.36C48.4748 17.9733 49.6881 18.28 51.0481 18.28Z" fill="white"/>
<path d="M93.8788 0C95.5854 0 97.0921 0.333333 98.3988 0.999999C99.7054 1.66667 100.719 2.68 101.439 4.04C102.185 5.4 102.559 7.12 102.559 9.2V21.4H98.7188V9.64C98.7188 7.58667 98.2388 6.04 97.2788 5C96.3188 3.96 94.9721 3.44 93.2388 3.44C91.9588 3.44 90.8388 3.70667 89.8788 4.24C88.9188 4.77333 88.1721 5.56 87.6388 6.6C87.1321 7.64 86.8788 8.93333 86.8788 10.48V21.4H83.0388V9.64C83.0388 7.58667 82.5588 6.04 81.5988 5C80.6654 3.96 79.3188 3.44 77.5588 3.44C76.3054 3.44 75.1988 3.70667 74.2388 4.24C73.2788 4.77333 72.5321 5.56 71.9988 6.6C71.4654 7.64 71.1988 8.93333 71.1988 10.48V21.4H67.3588V0.2H71.0388V5.84L70.4388 4.4C71.1054 3.01333 72.1321 1.93333 73.5188 1.16C74.9054 0.386666 76.5188 0 78.3588 0C80.3854 0 82.1321 0.506667 83.5988 1.52C85.0654 2.50667 86.0254 4.01333 86.4788 6.04L84.9188 5.4C85.5588 3.77333 86.6788 2.46667 88.2788 1.48C89.8788 0.493333 91.7454 0 93.8788 0Z" fill="white"/>
<path d="M110.544 21.64C109.798 21.64 109.158 21.3867 108.624 20.88C108.091 20.3467 107.824 19.68 107.824 18.88C107.824 18.08 108.091 17.4267 108.624 16.92C109.158 16.4133 109.798 16.16 110.544 16.16C111.264 16.16 111.878 16.4133 112.384 16.92C112.918 17.4267 113.184 18.08 113.184 18.88C113.184 19.68 112.918 20.3467 112.384 20.88C111.878 21.3867 111.264 21.64 110.544 21.64Z" fill="white"/>
</svg>
